<?xml version="1.0" encoding="UTF-8" standalone="no"?>
<!-- Created with Inkscape (http://www.inkscape.org/) -->

<svg
   xmlns:dc="http://purl.org/dc/elements/1.1/"
   xmlns:cc="http://creativecommons.org/ns#"
   xmlns:rdf="http://www.w3.org/1999/02/22-rdf-syntax-ns#"
   xmlns:svg="http://www.w3.org/2000/svg"
   xmlns="http://www.w3.org/2000/svg"
   xmlns:sodipodi="http://sodipodi.sourceforge.net/DTD/sodipodi-0.dtd"
   xmlns:inkscape="http://www.inkscape.org/namespaces/inkscape"
   width="12.8695mm"
   height="12.8695mm"
   viewBox="0 0 12.8695 12.8695"
   version="1.1"
   id="svg8"
   sodipodi:docname="man_icon.svg"
   inkscape:version="0.92.3 (2405546, 2018-03-11)">
  <defs
     id="defs2" />
  <sodipodi:namedview
     id="base"
     pagecolor="#ffffff"
     bordercolor="#666666"
     borderopacity="1.0"
     inkscape:pageopacity="0.0"
     inkscape:pageshadow="2"
     inkscape:zoom="5.6568543"
     inkscape:cx="-14.627419"
     inkscape:cy="7.98273"
     inkscape:document-units="mm"
     inkscape:current-layer="layer1"
     showgrid="true"
     inkscape:window-width="1853"
     inkscape:window-height="1025"
     inkscape:window-x="67"
     inkscape:window-y="27"
     inkscape:window-maximized="1"
     showguides="true"
     inkscape:guide-bbox="true">
    <sodipodi:guide
       position="6.4340001,6.5950002"
       orientation="1,0"
       id="guide4679"
       inkscape:locked="false"
       inkscape:label=""
       inkscape:color="rgb(0,0,255)" />
  </sodipodi:namedview>
  <metadata
     id="metadata5">
    <rdf:RDF>
      <cc:Work
         rdf:about="">
        <dc:format>image/svg+xml</dc:format>
        <dc:type
           rdf:resource="http://purl.org/dc/dcmitype/StillImage" />
        <dc:title></dc:title>
      </cc:Work>
    </rdf:RDF>
  </metadata>
  <g
     inkscape:label="Layer 1"
     inkscape:groupmode="layer"
     id="layer1"
     transform="translate(-4.4089212,-1.6798459)">
    <g
       id="g4681"
       transform="translate(-0.73081511,0.00758935)">
      <path
         style="fill:#45989f;stroke-width:0.08466667"
         d="m 7.370314,14.463507 c 0,-0.360216 1.6188619,-3.569987 1.9625298,-3.891172 0.3289436,-0.307424 0.2951213,-0.377083 -0.1210702,-0.24935 -0.2691361,0.0826 -0.3914835,0.0647 -0.9498272,-0.138936 C 7.6653781,9.9664687 7.370314,9.7370093 7.370314,9.4906622 7.370314,9.4347464 7.4717874,9.2684029 7.5958104,9.12101 7.8145751,8.8610229 7.8170828,8.8458724 7.6798142,8.6134951 7.6019934,8.4817549 7.5145236,8.2003417 7.4854372,7.9881325 7.4480223,7.7151614 7.3862998,7.5876175 7.2744333,7.5521124 7.0467247,7.4798405 7.0785208,7.2129959 7.3780897,6.682189 7.583963,6.3174014 7.6273469,6.1622542 7.5812443,5.9556764 7.5490028,5.811207 7.5042947,5.3911117 7.4818931,5.022131 7.4491748,4.483223 7.4010236,4.298632 7.2371076,4.083727 6.9550656,3.7139507 6.8912637,3.3353172 7.066047,3.0685641 7.2832266,2.7371062 8.0479331,2.2738884 8.823711,2.0038666 9.4673989,1.7798207 9.6303606,1.7581708 10.680871,1.7571375 c 1.074715,-0.00106 1.179233,0.013419 1.566333,0.2169484 0.541679,0.2848038 1.230169,0.9646338 1.476565,1.4579918 0.135867,0.2720479 0.207515,0.5914355 0.233544,1.041074 0.04192,0.7241993 -0.05871,1.121883 -0.555065,2.1935199 -0.360264,0.7778152 -0.395981,1.3466248 -0.114512,1.8236791 0.101354,0.1717816 0.626254,0.9171358 1.166444,1.6563433 0.960864,1.314863 0.990165,1.368363 1.351053,2.466828 0.224389,0.682996 0.369186,1.28035 0.369651,1.524983 l 7.64e-4,0.402167 h -4.402667 c -2.5932843,0 -4.402667,-0.03171 -4.402667,-0.07717 z"
         id="path4687"
         inkscape:connector-curvature="0" />
      <path
         style="fill:#10797e;stroke-width:0.08466667"
         d="m 7.4751579,14.392505 c 0.072099,-0.08149 0.2515236,-0.433917 0.3987221,-0.783167 0.4525054,-1.073635 1.3672806,-2.736723 1.6671394,-3.030909 0.1565454,-0.153583 0.284628,-0.335754 0.284628,-0.404823 0,-0.1966327 -0.2190417,-0.2317432 -0.460156,-0.07376 -0.1599891,0.104829 -0.3113538,0.129408 -0.5560084,0.09029 -0.5917209,-0.09462 -1.2698356,-0.4650973 -1.2698356,-0.6937542 0,-0.05906 0.1014733,-0.2279759 0.2254963,-0.3753688 C 7.988151,8.8559808 7.9889748,8.8502038 7.8397799,8.597637 7.7142316,8.3851005 7.6661505,8.1340282 7.6280803,7.4921716 c -0.00207,-0.034925 -0.079966,-0.0635 -0.1730996,-0.0635 -0.2391174,0 -0.2133305,-0.1948198 0.101616,-0.767707 L 7.827546,6.1681079 7.6780056,5.6937114 C 7.5690739,5.3481403 7.5440002,5.0949766 7.5856725,4.7614434 7.6390757,4.3340179 7.6253729,4.2823333 7.3795969,3.9841644 6.8813088,3.3796546 7.1068252,2.9429628 8.1823804,2.4296475 9.0690473,2.0064805 9.9744073,1.816569 10.918187,1.8557753 c 0.959538,0.039861 1.339329,0.1964804 2.01449,0.8307423 0.603352,0.5668032 0.806661,0.9926983 0.854271,1.789542 0.04291,0.7182331 -0.052,1.0923423 -0.554465,2.185529 -0.352436,0.7667761 -0.389349,1.3100563 -0.12431,1.8295774 0.09573,0.1876412 0.570931,0.8730672 1.056007,1.523169 0.485076,0.650102 0.94575,1.280323 1.023718,1.400493 0.142504,0.219635 0.83439,2.337029 0.931496,2.850677 l 0.05202,0.275167 h -4.413672 c -4.1969916,0 -4.407237,-0.0073 -4.2825841,-0.148167 z"
         id="path4685"
         inkscape:connector-curvature="0" />
      <path
         style="fill:#0b7881;stroke-width:0.08466667"
         d="m 7.560814,14.364557 c 0.081492,-0.04746 0.1481667,-0.128 0.1481667,-0.178969 0,-0.244929 1.6248816,-3.284865 1.9061303,-3.566113 C 9.8250658,10.40952 9.9140068,10.25071 9.8953348,10.119118 9.8605412,9.8739068 9.5335024,9.8156587 9.3128263,10.015368 9.1931552,10.123669 9.0697931,10.147091 8.8251218,10.107967 8.3927972,10.038835 7.7107805,9.7332111 7.6530371,9.5827345 7.6278031,9.5169754 7.7062673,9.3453867 7.8274022,9.2014261 8.0837884,8.8967282 8.1026092,8.7304039 7.9053643,8.5124507 7.8089315,8.4058936 7.7611852,8.1991184 7.7571976,7.8707839 7.7515529,7.406 7.7417916,7.385244 7.5166884,7.3593749 L 7.2820627,7.3324115 7.5997488,6.7515053 7.9174349,6.1705991 7.7600448,5.7075653 C 7.6402927,5.3552607 7.6168272,5.1310987 7.6619195,4.7701926 7.7176128,4.3244381 7.70551,4.2768382 7.4610824,3.9803051 7.1043478,3.5475243 7.1194388,3.2752245 7.5184807,2.9446148 8.255213,2.3342256 9.5401098,1.9253382 10.721478,1.9253382 c 1.071638,0 1.415883,0.1373597 2.222656,0.8868786 0.526613,0.4892408 0.712307,0.8966251 0.758108,1.6631714 0.04266,0.7139042 -0.0019,0.8971946 -0.508192,2.0910828 -0.381844,0.9004076 -0.420634,1.3346155 -0.169054,1.8923737 0.091,0.2017548 0.619,0.9858447 1.173328,1.7424213 1.004258,1.370666 1.009302,1.379931 1.407929,2.58541 0.220034,0.665398 0.400061,1.290981 0.400061,1.390183 0,0.0992 0.04763,0.199586 0.105834,0.223073 0.05821,0.02349 -1.875367,0.04455 -4.296834,0.04681 -3.0292333,0.0028 -4.3564453,-0.02281 -4.2545,-0.08219 z"
         id="path4683"
         inkscape:connector-curvature="0" />
    </g>
  </g>
</svg>
