<svg
   xmlns="http://www.w3.org/2000/svg"
   width="12.8695mm"
   height="12.8695mm"
   viewBox="0 0 12.8695 12.8695">
  <g transform="translate(-4.4089212,-1.4098459)">
    <g transform="translate(-0.73081511,0.00758935)">
      <path
         style="fill:#61a2a8;stroke-width:0.08466667"
         d="m 7.4751579,14.392505 c 0.072099,-0.08149 0.2515236,-0.433917 0.3987221,-0.783167 0.4525054,-1.073635 1.3672806,-2.736723 1.6671394,-3.030909 0.1565454,-0.153583 0.284628,-0.335754 0.284628,-0.404823 0,-0.1966327 -0.2190417,-0.2317432 -0.460156,-0.07376 -0.1599891,0.104829 -0.3113538,0.129408 -0.5560084,0.09029 -0.5917209,-0.09462 -1.2698356,-0.4650973 -1.2698356,-0.6937542 0,-0.05906 0.1014733,-0.2279759 0.2254963,-0.3753688 C 7.988151,8.8559808 7.9889748,8.8502038 7.8397799,8.597637 7.7142316,8.3851005 7.6661505,8.1340282 7.6280803,7.4921716 c -0.00207,-0.034925 -0.079966,-0.0635 -0.1730996,-0.0635 -0.2391174,0 -0.2133305,-0.1948198 0.101616,-0.767707 L 7.827546,6.1681079 7.6780056,5.6937114 C 7.5690739,5.3481403 7.5440002,5.0949766 7.5856725,4.7614434 7.6390757,4.3340179 7.6253729,4.2823333 7.3795969,3.9841644 6.8813088,3.3796546 7.1068252,2.9429628 8.1823804,2.4296475 9.0690473,2.0064805 9.9744073,1.816569 10.918187,1.8557753 c 0.959538,0.039861 1.339329,0.1964804 2.01449,0.8307423 0.603352,0.5668032 0.806661,0.9926983 0.854271,1.789542 0.04291,0.7182331 -0.052,1.0923423 -0.554465,2.185529 -0.352436,0.7667761 -0.389349,1.3100563 -0.12431,1.8295774 0.09573,0.1876412 0.570931,0.8730672 1.056007,1.523169 0.485076,0.650102 0.94575,1.280323 1.023718,1.400493 0.142504,0.219635 0.83439,2.337029 0.931496,2.850677 l 0.05202,0.275167 h -4.413672 c -4.1969916,0 -4.407237,-0.0073 -4.2825841,-0.148167 z" />
    </g>
  </g>
</svg>
