<svg
   xmlns="http://www.w3.org/2000/svg"
   width="12.8695mm"
   height="12.8695mm"
   viewBox="0 0 12.8695 12.8695">
  <g transform="translate(-4.4089212,-1.4498459)">
    <g transform="translate(2.2891368)">
      <path
         style="fill:#f7951d;stroke-width:0.08466667"
         d="m 4.4603132,14.415256 c -0.028265,-0.07366 -0.051392,-0.49312 -0.051392,-0.932137 0,-0.788614 0.00472,-0.80694 0.3923506,-1.523861 L 5.1936226,11.233611 5.0443259,10.740517 C 4.8679319,10.157927 4.9054246,9.8686298 5.2596369,9.0791569 5.5443942,8.4444864 5.5600279,8.2787657 5.3825881,7.7758476 c -0.06985,-0.197976 -0.127,-0.6249803 -0.127,-0.9488985 0,-0.520905 0.034412,-0.6476569 0.2978749,-1.0971881 C 5.8583652,5.2095245 5.8929578,5.050524 5.8008801,4.5925381 5.6775643,3.9791771 6.3241346,2.8251282 7.0676916,2.3314341 7.7731187,1.8630569 8.4897057,1.6798474 9.6162424,1.6798474 c 0.9025356,0 0.9839316,0.014544 1.4515816,0.2593763 0.587073,0.3073542 1.081815,0.7616313 1.309141,1.2020685 0.179151,0.347098 0.385201,1.5727309 0.301203,1.7916255 -0.02873,0.074876 -0.148467,0.172723 -0.266076,0.2174383 -0.278203,0.1057724 -0.27237,0.1954149 0.05277,0.8108477 0.28633,0.5419732 0.284531,0.7810749 -0.0065,0.8571677 -0.121741,0.031836 -0.163154,0.1197806 -0.165662,0.3517951 -0.0018,0.1701413 -0.0053,0.4276793 -0.0076,0.5723069 -0.0024,0.1505504 -0.07621,0.3280763 -0.172577,0.4152889 -0.11736,0.1062098 -0.168322,0.2605714 -0.168322,0.5098406 0,0.1966309 -0.04763,0.3950745 -0.105833,0.4409857 -0.206353,0.162759 -0.808346,0.1963796 -1.182525,0.066043 C 10.45639,9.1051566 10.265638,9.047758 10.23195,9.0470803 c -0.114365,-0.0023 -0.6584158,0.8844752 -0.6584158,1.0731857 0,0.204313 0.1498612,0.333876 0.8201798,0.709095 0.24155,0.13521 0.533875,0.370258 0.649612,0.522328 0.242391,0.318483 1.408875,2.850985 1.408875,3.058746 0,0.126579 -0.348187,0.138747 -3.9702751,0.138747 -3.5422674,0 -3.9758152,-0.01444 -4.0216667,-0.133925 z" />
    </g>
  </g>
</svg>
